<?xml version="1.0" encoding="utf-8"?>
<!-- Generator: Adobe Illustrator 19.1.1, SVG Export Plug-In . SVG Version: 6.00 Build 0)  -->
<svg version="1.1" id="Layer_1" xmlns="http://www.w3.org/2000/svg" xmlns:xlink="http://www.w3.org/1999/xlink" x="0px" y="0px"
	 viewBox="0 0 86.9 87.1" style="enable-background:new 0 0 86.9 87.1;" xml:space="preserve">
<style type="text/css">
	.st0{fill:#E2B605;stroke:#E2B605;stroke-miterlimit:10;}
</style>
<g>
	<path class="st0" d="M63.4,4.7c0,0-3.3,7-14.2,12.2S37.6,27.2,36.6,29.3c0,0,6-5.2,15.5-8.7C62.2,17,63.9,6.3,63.4,4.7z"/>
	<path class="st0" d="M29.2,1.8c0,0,2.8,7.2-0.8,18.7S27.9,36,28.8,38.3c0,0,0.3-7.9,4.3-17.2C37.4,11.1,30.7,2.6,29.2,1.8z"/>
	<path class="st0" d="M1.8,23.7c0,0,7.2,2.9,13.1,13.3S26,47.9,28.2,48.8c0,0-5.6-5.6-9.7-14.9C14.2,24,3.4,23,1.8,23.7z"/>
	<path class="st0" d="M3.1,57.6c0,0,7.3-2.7,18.6,1.2s15.6,0.7,17.8-0.1c0,0-7.9-0.4-17.2-4.6C12.6,49.5,3.9,56,3.1,57.6z"/>
	<path class="st0" d="M24,83.4c0,0,3.3-7,14.1-12.2s11.6-10.4,12.6-12.6c0,0-5.9,5.3-15.5,8.7C25.1,71.1,23.5,81.8,24,83.4z"/>
	<path class="st0" d="M58.5,85c0,0-2.6-7.3,1.5-18.6s1-15.6,0.2-17.8c0,0-0.6,7.9-4.9,17.1C50.7,75.4,57,84.2,58.5,85z"/>
	<path class="st0" d="M85.4,28.9c0,0-7.2,2.8-18.7-0.9S51.2,27.5,49,28.3c0,0,7.9,0.3,17.2,4.4C76.1,37.1,84.6,30.5,85.4,28.9z"/>
	<path class="st0" d="M84.4,62.7c0,0-7.1-3.2-12.4-13.9C66.6,38,61.4,37.3,59.2,36.3c0,0,5.3,5.9,9,15.3
		C72,61.7,82.7,63.2,84.4,62.7z"/>
</g>
</svg>
