<?xml version="1.0" encoding="iso-8859-1"?>
<svg xmlns="http://www.w3.org/2000/svg" xmlns:xlink="http://www.w3.org/1999/xlink" version="1.1" viewBox="0 0 19.353 19.353" enable-background="new 0 0 19.353 19.353" width="512px" height="512px">
  <g>
    <path d="M19.06,16.939l-1.606-1.606c-0.259-0.259-0.576-0.455-0.924-0.571l-0.001,0c-0.348-0.116-0.665-0.312-0.924-0.571   L14.314,12.9C15.367,11.545,16,9.848,16,8c0-4.418-3.582-8-8-8S0,3.582,0,8s3.582,8,8,8c1.849,0,3.546-0.633,4.9-1.686l1.291,1.291   c0.26,0.26,0.455,0.576,0.571,0.925c0.116,0.349,0.312,0.665,0.571,0.925l1.606,1.606c0.391,0.39,1.024,0.39,1.414,0l0.707-0.707   C19.451,17.963,19.451,17.33,19.06,16.939z M8,14c-3.308,0-6-2.692-6-6s2.692-6,6-6s6,2.692,6,6S11.308,14,8,14z" fill="#FFFFFF"/>
    <polygon points="11,7 9,7 9,5 7,5 7,7 5,7 5,9 7,9 7,11 9,11 9,9 11,9  " fill="#FFFFFF"/>
  </g>
</svg>
